<?xml version="1.0" encoding="utf-8"?>
<!-- Generator: Adobe Illustrator 25.2.3, SVG Export Plug-In . SVG Version: 6.00 Build 0)  -->
<svg version="1.1" id="レイヤー_1" xmlns="http://www.w3.org/2000/svg" xmlns:xlink="http://www.w3.org/1999/xlink" x="0px"
	 y="0px" viewBox="0 0 150 28" style="enable-background:new 0 0 150 28;" xml:space="preserve">
<style type="text/css">
	.st0{fill:#FFFFFF;}
	.st1{fill:none;stroke:#707070;}
	.st2{fill:#646464;}
</style>
<g id="グループ_5498" transform="translate(-934 -1191)">
	<g id="長方形_66682" transform="translate(934 1191)">
		<rect y="0" class="st0" width="150" height="28"/>
		<rect x="0.5" y="0.5" class="st1" width="149" height="27"/>
	</g>
</g>
<path id="パス_5574" class="st2" d="M26.1,13.7l0.1,2.8c0,0.6-0.1,0.7-0.3,0.7c-0.5,0.1-0.9,0.2-1.4,0.1c0.2,0.2,0.4,0.4,0.5,0.6
	c0,0.1,0.1,0.1,0.2,0.1c0.5,0,0.9-0.1,1.3-0.3c0.3-0.2,0.5-0.5,0.5-1.2l-0.2-4.2h1.1c0.7,0,1.2,0,2,0c0.1,0,0.1,0,0.1-0.1v-0.5
	c0-0.1,0-0.1-0.1-0.1c-0.7,0-1.3,0-2,0h-1.1l0-1c0-0.3,0-0.7,0.1-1c0.1-0.1,0.1-0.2-0.1-0.3c-0.3-0.1-0.6-0.1-0.9-0.1
	c0.1,0.4,0.2,0.8,0.2,1.3l0.1,1.1h-2.8c-0.6,0-1.3,0-2-0.1c0,0.2,0,0.5,0.1,0.7c0,0.1,0,0.2,0.1,0.1c0.6,0,1.2-0.1,1.8-0.1h2.4
	c-0.5,0.7-1.1,1.4-1.7,1.9c-0.8,0.7-1.8,1.3-2.8,1.8c0.2,0.1,0.4,0.2,0.5,0.4c0.1,0.1,0.2,0.1,0.3,0c0.9-0.5,1.7-1.1,2.4-1.7
	c0.7-0.6,1.2-1.3,1.7-2L26.1,13.7z M32.8,11c0.8,0.5,1.5,1,2.1,1.6c0.1,0.1,0.1,0.1,0.2,0c0.1-0.1,0.3-0.3,0.4-0.5
	c0.1-0.1,0-0.1,0-0.2c-0.6-0.6-1.3-1.1-2-1.5c-0.1,0-0.1,0-0.2,0c0,0,0,0,0,0C33.2,10.7,33,10.9,32.8,11L32.8,11z M33.1,16.8
	c0.2,0.3,0.3,0.5,0.5,0.7c0.1,0.1,0.2,0.1,0.2,0.1c0,0,0,0,0.1,0c0.2-0.2,0.4-0.3,0.6-0.4c1.2-0.6,2.3-1.3,3.3-2.1
	c1-0.8,1.9-1.6,2.7-2.5c0.1-0.2,0.1-0.2,0.1-0.4c-0.1-0.2-0.2-0.5-0.2-0.7c-0.9,1.1-1.9,2.1-3,3c-1,0.8-2.1,1.5-3.2,2
	C33.9,16.5,33.5,16.7,33.1,16.8L33.1,16.8z M48.4,10.7c0.7,0,1.1,0,1.6,0c0.1,0,0.1,0,0.1-0.1c0-0.2,0-0.3,0-0.5
	c0-0.1,0-0.1-0.1-0.1c-0.5,0-1,0.1-1.7,0.1h-1.7c-0.6,0-1.2,0-1.8-0.1c0,0.2,0,0.4,0.1,0.7c0,0.1,0,0.2,0.1,0.2c0.5,0,1,0,1.6,0
	L48.4,10.7z M49.9,13c-0.9,2.2-2.6,4-4.8,4.9c0.2,0.1,0.4,0.2,0.6,0.3c0.1,0.1,0.2,0.1,0.3,0c2.1-1,3.8-2.8,4.6-5
	c0-0.1,0.1-0.3,0.3-0.4c0.1-0.1,0.1-0.2,0-0.3c-0.1-0.1-0.3-0.3-0.4-0.4c-0.1-0.1-0.2-0.1-0.3,0c-0.2,0.1-0.4,0.1-0.5,0.1h-3.9
	c-0.7,0-1.3,0-1.8-0.1c0,0.2,0,0.5,0.1,0.7c0,0.1,0.1,0.2,0.2,0.1c0.5,0,0.9-0.1,1.6-0.1L49.9,13z M59.5,12.2c0.5-0.5,0.9-1,1.4-1.5
	c0.2-0.2,0.4-0.4,0.6-0.6c0.1,0,0.1-0.1,0.1-0.2c0,0,0-0.1-0.1-0.1c-0.2-0.2-0.5-0.4-0.8-0.5c-0.2,0.5-0.4,0.9-0.8,1.2
	c-0.7,0.8-1.4,1.5-2.1,2.1c-1.1,0.9-2.2,1.7-3.4,2.3c0.2,0.1,0.4,0.2,0.5,0.4c0.1,0.1,0.2,0.1,0.3,0c1.2-0.7,2.4-1.5,3.5-2.5v3.3
	c0,0.6,0,1.3,0,2c0,0.1,0,0.1,0.1,0.1c0.2,0,0.4,0,0.6,0c0.1,0,0.1,0,0.1-0.1c0-0.7,0-1.3,0-2V12.2z M65.9,11c0.8,0.5,1.5,1,2.1,1.6
	c0.1,0.1,0.1,0.1,0.2,0c0.1-0.1,0.3-0.3,0.4-0.5c0.1-0.1,0-0.1,0-0.2c-0.6-0.6-1.3-1.1-2-1.5c-0.1,0-0.1,0-0.2,0c0,0,0,0,0,0
	C66.2,10.7,66,10.9,65.9,11z M66.1,16.8c0.2,0.3,0.3,0.5,0.5,0.7c0.1,0.1,0.2,0.1,0.2,0.1c0,0,0,0,0.1,0c0.2-0.2,0.4-0.3,0.6-0.4
	c1.2-0.6,2.3-1.3,3.3-2.1c1-0.8,1.9-1.6,2.7-2.5c0.1-0.2,0.1-0.2,0.1-0.4c-0.1-0.2-0.2-0.5-0.2-0.7c-0.9,1.1-1.9,2.1-3,3
	c-1,0.8-2.1,1.5-3.2,2C66.9,16.5,66.5,16.7,66.1,16.8z M78.9,10.6c-0.7,0-1.2,0-1.7,0c0,0.2,0,0.5,0.1,0.7c0,0.1,0,0.1,0.1,0.1
	c0.5,0,1-0.1,1.6-0.1h3.3c-0.6,1.1-1.3,2.1-2.1,2.9c-1.2,1.2-2.5,2.2-4,3c0.2,0.1,0.4,0.2,0.6,0.4c0.1,0.1,0.2,0.1,0.3,0
	c1.5-0.8,2.8-1.9,3.9-3.1c1.1,0.8,2.1,1.8,3,2.8c0.1,0.1,0.1,0.1,0.2,0c0.1-0.1,0.3-0.3,0.4-0.4c0.1-0.1,0.1-0.1,0-0.2
	c-1-1-2-1.9-3.2-2.8c0.6-0.7,1.1-1.5,1.6-2.4c0.1-0.2,0.2-0.3,0.3-0.4c0.1-0.1,0.1-0.2,0.1-0.3c-0.1-0.2-0.3-0.3-0.5-0.5
	c-0.1-0.1-0.1-0.1-0.2,0c-0.2,0.1-0.4,0.1-0.6,0.1H78.9z M91,10.9c0-0.4,0-0.8,0.1-1.2c0.1-0.2,0.1-0.3-0.1-0.3
	c-0.3-0.1-0.6-0.1-0.9-0.1c0.1,0.6,0.1,1.2,0.1,1.8v4.9c0,0.7,0,1.5,0,2.2c0,0.1,0,0.2,0.2,0.2c0.2,0,0.4,0,0.6,0
	c0.1,0,0.2,0,0.1-0.1c0-0.7,0-1.6,0-2.2v-2.6c1.1,0.3,2.2,0.8,3.2,1.5c0.1,0.1,0.1,0,0.2,0c0.1-0.2,0.2-0.4,0.3-0.5
	c0-0.1,0-0.1-0.1-0.2c-1.1-0.7-2.3-1.2-3.6-1.5L91,10.9z M105.8,11c-0.6,0.9-1.3,1.6-2.2,2.2c0.2,0.1,0.4,0.1,0.6,0.3
	c0.1,0.1,0.2,0.1,0.3,0c0.8-0.6,1.5-1.3,2.1-2.2c0.1-0.1,0.1-0.2,0.2-0.3c0.1,0,0.1-0.2,0.1-0.3c0,0,0,0,0-0.1
	c-0.1-0.2-0.3-0.3-0.4-0.4c0,0-0.1-0.1-0.2-0.1c-0.1,0-0.1,0-0.2,0c-0.3,0.1-0.5,0.1-0.8,0.1h-4.6c-0.8,0-1.5,0-2.3-0.1
	c0,0.3,0.1,0.5,0.1,0.8c0,0.1,0.1,0.1,0.2,0.1c0.7-0.1,1.4-0.1,2-0.1L105.8,11z M99.2,17.7c0.2,0.1,0.4,0.2,0.6,0.3
	c0.1,0.1,0.2,0.1,0.3,0c0.9-0.5,1.6-1.3,2.1-2.2c0.4-0.9,0.6-1.9,0.6-2.9c0-0.2,0-0.4,0.1-0.5c0.1-0.1,0.1-0.3-0.1-0.3
	c-0.3-0.1-0.6-0.1-0.9-0.2c0.1,0.3,0.1,0.6,0.1,0.9c0,0.9-0.2,1.9-0.5,2.7C101,16.5,100.2,17.2,99.2,17.7z M116.2,13.8
	c0.9,0,1.2,0,1.3,0c0.1,0,0.1,0,0.1-0.1s0-0.4,0-1.2v-1.9c0-0.8,0-1.1,0-1.2s0-0.1-0.1-0.1c-0.1,0-0.4,0-1.3,0h-1.8
	c-0.9,0-1.3,0-1.4,0c-0.1,0-0.1,0-0.1,0.1s0,0.7,0,2v6.2l-0.5,0.1c-0.3,0.1-0.6,0.1-0.9,0.2c0,0.2,0.1,0.4,0.2,0.6
	c0,0.1,0.1,0.1,0.1,0.1c0.1,0,0.1,0,0.1-0.1c0.1-0.1,0.3-0.1,0.4-0.1c1.1-0.3,2.1-0.6,3-0.9c0.2-0.1,0.2-0.1,0.2-0.3
	c0-0.1,0-0.3,0.1-0.4c-0.6,0.3-1.3,0.5-2,0.7v-3.7h1.1c0.3,2,1.5,3.8,3.2,4.9c0,0,0.1,0.1,0.2,0.1c0,0,0.1,0,0.1-0.2
	c0.1-0.2,0.2-0.3,0.3-0.4c-0.9-0.5-1.7-1.1-2.3-2c0.4-0.3,0.8-0.6,1.2-0.9c0.2-0.2,0.3-0.3,0.5-0.4c0.1,0,0.1-0.1,0.1-0.1
	c0,0,0-0.1-0.1-0.1c-0.1-0.2-0.3-0.3-0.5-0.4c-0.1,0.2-0.2,0.3-0.3,0.4c-0.4,0.4-0.8,0.8-1.3,1.1c-0.3-0.6-0.5-1.2-0.6-1.8
	L116.2,13.8z M116.9,13.2h-3.3v-1.4h3.3L116.9,13.2z M116.9,11.3h-3.3V10h3.3L116.9,11.3z M110.2,9.4c-0.6,0-0.8,0-0.9,0
	s-0.1,0-0.1,0.1s0,0.7,0,2.2v4.7c0,1.5,0,2.2,0,2.3s0,0.1,0.1,0.1h0.5c0.1,0,0.1,0,0.1-0.1c0-0.1,0-0.8,0-2.3V10h1.7
	c-0.3,0.9-0.8,1.8-1.3,2.6c1.1,1.3,1.3,1.9,1.3,2.5c0,0.7-0.5,0.9-1.5,0.9c0.1,0.1,0.2,0.3,0.2,0.5c0,0.2,0,0.2,0.3,0.2
	c1.2,0,1.6-0.7,1.6-1.5c0-0.7-0.2-1.3-1.2-2.5c0.4-0.7,0.8-1.5,1.2-2.3c0-0.1,0.1-0.2,0.2-0.3c0,0,0.1-0.1,0.1-0.2
	c0-0.1,0-0.1-0.2-0.3c-0.2-0.2-0.2-0.2-0.3-0.2c0,0-0.1,0-0.1,0c-0.1,0-0.2,0-0.3,0L110.2,9.4z M124.9,15.2h1.6c0.8,0,1,0,1.1,0
	c0.1,0,0.1,0,0.1-0.1v-0.5c0-0.1,0-0.1-0.1-0.1c-0.1,0-0.3,0-1.1,0h-1.6v-1.8h1.2c1.1,0,1.5,0,1.5,0c0.1,0,0.1,0,0.1-0.1v-0.5
	c0-0.1,0-0.1-0.1-0.1c-0.1,0-0.4,0-1.5,0H123c-1.1,0-1.5,0-1.5,0c-0.1,0-0.1,0-0.1,0.1v0.5c0,0.1,0,0.1,0.1,0.1c0.1,0,0.4,0,1.5,0
	h1.2v4.7c-1-0.2-1.7-0.9-2-1.9c0.1-0.4,0.2-0.7,0.2-1.1c0-0.1,0.1-0.2,0.1-0.3c0-0.1,0.1-0.1,0.1-0.2c0-0.1,0-0.1-0.2-0.1
	c-0.2-0.1-0.4-0.1-0.6-0.1c0,0.2,0,0.4,0,0.6c-0.1,1.5-0.9,2.9-2.1,3.8c0.1,0.1,0.3,0.2,0.4,0.3c0.1,0.1,0.1,0.1,0.2,0.1
	s0.1,0,0.2-0.1c0.7-0.6,1.3-1.3,1.6-2.2c0.7,1.4,1.4,2.1,5.8,2.1c0.3,0,0.7,0,1,0c0.2,0,0.2,0,0.3-0.2c0-0.2,0.1-0.3,0.2-0.5
	c-0.6,0-1.3,0.1-1.8,0.1c-0.8,0-1.7,0-2.5-0.1V15.2z M129,10.7c0-0.3,0-0.4,0-0.5s0-0.1-0.1-0.1s-0.4,0-1.5,0h-2.6V10
	c0-0.3,0-0.5,0-0.8c0-0.1,0.1-0.1,0.1-0.2c0,0,0-0.1-0.1-0.1c-0.2,0-0.5-0.1-0.7-0.1c0.1,0.4,0.1,0.7,0.1,1.1v0.2h-2.4
	c-1.1,0-1.5,0-1.5,0c-0.1,0-0.1,0-0.1,0.1s0,0.2,0,0.6v0.3c0,0.9,0,1.1,0,1.1s0,0.1,0.1,0.1h0.5c0.1,0,0.1,0,0.1-0.1v-1.5h7.5v1.5
	c0,0.1,0,0.1,0.1,0.1h0.5c0.1,0,0.1,0,0.1-0.1s0-0.2,0-1.1L129,10.7z"/>
</svg>
